<?xml version="1.0" encoding="UTF-8"?>
<svg width="1440" height="800" viewBox="0 0 1440 800" fill="none" xmlns="http://www.w3.org/2000/svg">
  <g opacity="0.5">
    <circle cx="720" cy="400" r="200" stroke="currentColor" stroke-width="2" stroke-dasharray="10 10"/>
    <circle cx="720" cy="400" r="300" stroke="currentColor" stroke-width="1.5" stroke-dasharray="8 8"/>
    <circle cx="720" cy="400" r="400" stroke="currentColor" stroke-width="1" stroke-dasharray="5 5"/>
    
    <line x1="320" y1="400" x2="1120" y2="400" stroke="currentColor" stroke-width="1" stroke-dasharray="5 5"/>
    <line x1="720" y1="0" x2="720" y2="800" stroke="currentColor" stroke-width="1" stroke-dasharray="5 5"/>
    
    <circle cx="520" cy="300" r="10" fill="currentColor" opacity="0.5"/>
    <circle cx="920" cy="300" r="10" fill="currentColor" opacity="0.5"/>
    <circle cx="520" cy="500" r="10" fill="currentColor" opacity="0.5"/>
    <circle cx="920" cy="500" r="10" fill="currentColor" opacity="0.5"/>
    
    <path d="M720 200 L770 300 L720 400 L670 300 Z" stroke="currentColor" fill="currentColor" fill-opacity="0.1" stroke-width="1"/>
    <path d="M720 400 L770 500 L720 600 L670 500 Z" stroke="currentColor" fill="currentColor" fill-opacity="0.1" stroke-width="1"/>
    
    <path d="M520 300 C570 350, 670 350, 720 400 C770 450, 870 450, 920 500" stroke="currentColor" stroke-width="1" fill="none" stroke-dasharray="5 5"/>
    <path d="M520 500 C570 450, 670 450, 720 400 C770 350, 870 350, 920 300" stroke="currentColor" stroke-width="1" fill="none" stroke-dasharray="5 5"/>
    
    <g opacity="0.2">
      <circle cx="320" cy="200" r="5" fill="currentColor"/>
      <circle cx="370" cy="250" r="5" fill="currentColor"/>
      <circle cx="420" cy="300" r="5" fill="currentColor"/>
      <circle cx="470" cy="350" r="5" fill="currentColor"/>
      
      <circle cx="1120" cy="200" r="5" fill="currentColor"/>
      <circle cx="1070" cy="250" r="5" fill="currentColor"/>
      <circle cx="1020" cy="300" r="5" fill="currentColor"/>
      <circle cx="970" cy="350" r="5" fill="currentColor"/>
      
      <circle cx="320" cy="600" r="5" fill="currentColor"/>
      <circle cx="370" cy="550" r="5" fill="currentColor"/>
      <circle cx="420" cy="500" r="5" fill="currentColor"/>
      <circle cx="470" cy="450" r="5" fill="currentColor"/>
      
      <circle cx="1120" cy="600" r="5" fill="currentColor"/>
      <circle cx="1070" cy="550" r="5" fill="currentColor"/>
      <circle cx="1020" cy="500" r="5" fill="currentColor"/>
      <circle cx="970" cy="450" r="5" fill="currentColor"/>
    </g>
  </g>
</svg>
