<svg width="145" height="37" viewBox="0 0 145 37" fill="none" xmlns="http://www.w3.org/2000/svg">
<path d="M25.3288 5.30137V30.0411L40.0548 32.3973V19.7329H43V36.226L22.5614 32.6918V3.23973L43 0.294521V16.4931H40.0548V3.23973L25.3288 5.30137Z" fill="#245D66"/>
<path fill-rule="evenodd" clip-rule="evenodd" d="M20.911 32.6918V3.23973L0 0V35.9315L20.911 32.6918ZM17.6712 5.30137L2.94521 3.23973V32.1027L17.6712 30.0411V19.4384H7.36301V16.4931H17.6712V5.30137Z" fill="#245D66"/>
<path d="M55.2489 5.78901C55.7716 5.79835 56.2289 5.91968 56.6209 6.15301C57.0129 6.38635 57.3116 6.69901 57.5169 7.09101C57.7316 7.48301 57.8389 7.92635 57.8389 8.42101C57.8389 8.78501 57.7689 9.13035 57.6289 9.45701C57.4982 9.77435 57.3162 10.059 57.0829 10.311C57.4189 10.563 57.6802 10.8757 57.8669 11.249C58.0629 11.6223 58.1609 12.033 58.1609 12.481C58.1609 12.957 58.0442 13.3957 57.8109 13.797C57.5776 14.1983 57.2649 14.5203 56.8729 14.763C56.4809 14.9963 56.0469 15.113 55.5709 15.113H52.5189V5.78901H55.2489ZM53.7509 7.04901V9.82101H55.2489C55.6316 9.82101 55.9536 9.68568 56.2149 9.41501C56.4762 9.14435 56.6069 8.81301 56.6069 8.42101C56.6069 8.02901 56.4762 7.70235 56.2149 7.44101C55.9629 7.17968 55.6409 7.04901 55.2489 7.04901H53.7509ZM53.7509 11.081V13.853H55.5709C55.9536 13.853 56.2756 13.7223 56.5369 13.461C56.7982 13.1903 56.9289 12.8637 56.9289 12.481C56.9289 12.089 56.7982 11.7577 56.5369 11.487C56.2756 11.2163 55.9536 11.081 55.5709 11.081H53.7509ZM59.8432 15.113V5.80301H64.9392V7.06301H61.0612V9.89101H63.6652V11.039H61.0612V13.853H64.9392V15.113H59.8432ZM66.7573 15.113V5.80301H67.9333V15.113H66.7573ZM75.1936 15.113L70.9936 8.28101V15.113H69.7476V5.80301H70.9656L75.3056 12.831V5.80301H76.5376V15.113H75.1936ZM85.6791 14.217C85.4644 14.3757 85.2498 14.511 85.0351 14.623C84.3538 14.987 83.6304 15.169 82.8651 15.169C82.3891 15.169 81.9318 15.099 81.4931 14.959C80.9144 14.791 80.3871 14.511 79.9111 14.119C79.4351 13.727 79.0478 13.251 78.7491 12.691C78.3944 12.047 78.2171 11.333 78.2171 10.549C78.2171 10.3063 78.2264 10.1197 78.2451 9.98901C78.3011 9.47568 78.4318 8.99035 78.6371 8.53301C78.8518 8.06635 79.1271 7.65568 79.4631 7.30101C79.7991 6.94635 80.1818 6.64768 80.6111 6.40501C81.0498 6.16235 81.5164 5.99435 82.0111 5.90101C82.2911 5.84501 82.5804 5.81701 82.8791 5.81701C83.6538 5.81701 84.3911 6.01301 85.0911 6.40501C85.6138 6.71301 86.0851 7.10968 86.5051 7.59501L85.5391 8.40701C85.0818 7.90301 84.6011 7.54368 84.0971 7.32901C83.6771 7.17035 83.2524 7.09101 82.8231 7.09101C82.2724 7.09101 81.7498 7.22168 81.2551 7.48301C80.6391 7.80968 80.1631 8.31368 79.8271 8.99501C79.5844 9.46168 79.4631 9.96101 79.4631 10.493C79.4631 10.7917 79.5051 11.0903 79.5891 11.389C79.7664 12.117 80.1678 12.719 80.7931 13.195C81.0824 13.419 81.4044 13.5917 81.7591 13.713C82.1138 13.8343 82.4778 13.895 82.8511 13.895C83.3458 13.895 83.8078 13.797 84.2371 13.601C84.6758 13.3957 85.0631 13.111 85.3991 12.747V11.809H84.1111V10.549H86.6451V13.209C86.3558 13.6197 86.0338 13.9557 85.6791 14.217ZM57.0549 29.169C56.4202 29.169 55.8182 29.0477 55.2489 28.805C54.6796 28.5623 54.1802 28.2217 53.7509 27.783C53.3216 27.3537 52.9856 26.8543 52.7429 26.285C52.5002 25.7157 52.3789 25.109 52.3789 24.465C52.3789 23.821 52.4956 23.2143 52.7289 22.645C52.9716 22.0757 53.3122 21.5717 53.7509 21.133C54.1802 20.7037 54.6796 20.3677 55.2489 20.125C55.8182 19.8823 56.4202 19.761 57.0549 19.761C57.7549 19.761 58.4176 19.9103 59.0429 20.209C59.6682 20.5077 60.2282 20.951 60.7229 21.539L59.7709 22.351C59.0056 21.4737 58.1002 21.035 57.0549 21.035C56.5976 21.035 56.1589 21.1237 55.7389 21.301C55.3282 21.4783 54.9642 21.7257 54.6469 22.043C54.3296 22.3603 54.0822 22.729 53.9049 23.149C53.7276 23.5597 53.6389 23.9983 53.6389 24.465C53.6389 24.9317 53.7276 25.375 53.9049 25.795C54.0822 26.2057 54.3296 26.5697 54.6469 26.887C54.9642 27.2043 55.3282 27.4517 55.7389 27.629C56.1589 27.8063 56.5976 27.895 57.0549 27.895C58.1002 27.895 59.0056 27.4563 59.7709 26.579L60.7229 27.391C60.2189 27.979 59.6542 28.4223 59.0289 28.721C58.4129 29.0197 57.7549 29.169 57.0549 29.169ZM66.6484 29.183C66.0137 29.183 65.4117 29.0663 64.8424 28.833C64.2824 28.5903 63.7877 28.2497 63.3584 27.811C62.9291 27.3817 62.5931 26.8823 62.3504 26.313C62.1077 25.7343 61.9864 25.1277 61.9864 24.493C61.9864 23.8583 62.1031 23.261 62.3364 22.701C62.5791 22.1317 62.9197 21.6277 63.3584 21.189C63.7877 20.7597 64.2824 20.4237 64.8424 20.181C65.4117 19.9383 66.0137 19.817 66.6484 19.817C67.2831 19.817 67.8851 19.9383 68.4544 20.181C69.0237 20.4237 69.5231 20.7597 69.9524 21.189C70.3817 21.6183 70.7177 22.1177 70.9604 22.687C71.2031 23.2563 71.3244 23.8583 71.3244 24.493C71.3244 25.1277 71.2031 25.7343 70.9604 26.313C70.7177 26.8823 70.3817 27.3817 69.9524 27.811C69.5231 28.2403 69.0237 28.5763 68.4544 28.819C67.8851 29.0617 67.2831 29.183 66.6484 29.183ZM66.6484 21.091C66.1911 21.091 65.7524 21.1797 65.3324 21.357C64.9217 21.525 64.5577 21.7677 64.2404 22.085C63.9231 22.4023 63.6757 22.771 63.4984 23.191C63.3304 23.6017 63.2464 24.0357 63.2464 24.493C63.2464 24.9597 63.3351 25.4077 63.5124 25.837C63.6897 26.257 63.9324 26.621 64.2404 26.929C64.5577 27.2463 64.9217 27.4937 65.3324 27.671C65.7524 27.839 66.1911 27.923 66.6484 27.923C67.1057 27.923 67.5397 27.839 67.9504 27.671C68.3704 27.4937 68.7391 27.2463 69.0564 26.929C69.3644 26.621 69.6071 26.257 69.7844 25.837C69.9617 25.4077 70.0504 24.9597 70.0504 24.493C70.0504 24.0357 69.9617 23.6017 69.7844 23.191C69.6164 22.771 69.3737 22.4023 69.0564 22.085C68.7391 21.7677 68.3704 21.525 67.9504 21.357C67.5397 21.1797 67.1057 21.091 66.6484 21.091ZM78.4514 29.113L74.2514 22.281V29.113H73.0054V19.803H74.2234L78.5634 26.831V19.803H79.7954V29.113H78.4514ZM86.5848 22.673C86.5382 22.309 86.4402 22.0103 86.2908 21.777C86.1228 21.525 85.9128 21.343 85.6608 21.231C85.4182 21.1097 85.1055 21.049 84.7228 21.049C84.0882 21.049 83.6448 21.1843 83.3928 21.455C83.1502 21.6977 83.0288 22.0477 83.0288 22.505C83.0288 22.7663 83.0662 22.981 83.1408 23.149C83.2155 23.3077 83.3275 23.4383 83.4768 23.541C83.7008 23.6997 84.0695 23.8023 84.5828 23.849C85.1055 23.8957 85.5442 23.9703 85.8988 24.073C86.2628 24.1663 86.5802 24.297 86.8508 24.465C87.5322 24.8943 87.8728 25.5663 87.8728 26.481C87.8728 26.8357 87.8028 27.1717 87.6628 27.489C87.5228 27.8063 87.3268 28.091 87.0748 28.343C86.7762 28.6323 86.4215 28.847 86.0108 28.987C85.6095 29.127 85.1895 29.197 84.7508 29.197C83.7615 29.197 82.9728 28.917 82.3848 28.357C81.8808 27.853 81.5775 27.181 81.4748 26.341L81.5028 26.327H82.7348C82.8095 26.8217 82.9775 27.1903 83.2388 27.433C83.6028 27.769 84.0928 27.937 84.7088 27.937C85.2968 27.937 85.7635 27.8017 86.1088 27.531C86.4542 27.2603 86.6268 26.9103 86.6268 26.481C86.6268 26.285 86.5988 26.117 86.5428 25.977C86.4962 25.8277 86.4028 25.697 86.2628 25.585C85.9455 25.3423 85.3528 25.1883 84.4848 25.123C83.5982 25.0483 82.9262 24.7917 82.4688 24.353C82.0115 23.9143 81.7828 23.2983 81.7828 22.505C81.7828 21.7023 82.0302 21.0537 82.5248 20.559C83.0475 20.0363 83.7755 19.775 84.7088 19.775C85.6795 19.775 86.4355 20.069 86.9768 20.657C87.4528 21.1703 87.7422 21.8423 87.8448 22.673H86.5848ZM92.8024 29.211C92.3637 29.211 91.9437 29.127 91.5424 28.959C91.1504 28.7817 90.805 28.539 90.5064 28.231C90.2077 27.923 89.9744 27.5683 89.8064 27.167C89.6384 26.7657 89.5544 26.3457 89.5544 25.907V19.831H90.7444V25.907C90.7444 26.187 90.7957 26.453 90.8984 26.705C91.001 26.957 91.1504 27.181 91.3464 27.377C91.533 27.573 91.7524 27.727 92.0044 27.839C92.2564 27.9417 92.5224 27.993 92.8024 27.993C93.0824 27.993 93.3484 27.9417 93.6004 27.839C93.8524 27.727 94.0764 27.573 94.2724 27.377C94.4684 27.181 94.6177 26.957 94.7204 26.705C94.823 26.453 94.8744 26.187 94.8744 25.907V19.831H96.0504V25.907C96.0504 26.3457 95.9664 26.7657 95.7984 27.167C95.6304 27.5683 95.397 27.923 95.0984 28.231C94.7997 28.539 94.4497 28.7817 94.0484 28.959C93.6564 29.127 93.241 29.211 92.8024 29.211ZM97.8767 29.113V19.803H99.0807V27.853H101.881V29.113H97.8767ZM105.922 20.993V29.113H104.69V20.993H102.436V19.803H108.176V20.993H105.922ZM114.863 29.113L113.715 25.837H110.803L109.655 29.113H108.325L111.559 19.817H112.959L116.193 29.113H114.863ZM112.259 21.623L111.195 24.661H113.309L112.259 21.623ZM123.313 29.113L119.113 22.281V29.113H117.867V19.803H119.085L123.425 26.831V19.803H124.657V29.113H123.313ZM129.823 20.993V29.113H128.591V20.993H126.337V19.803H132.077V20.993H129.823Z" fill="#245D66"/>
</svg>
